
<svg xmlns="http://www.w3.org/2000/svg" xmlns:xlink="http://www.w3.org/1999/xlink" width="20pt" height="20pt" viewBox="0 0 20 20" version="1.1">
<g id="surface1">
<path style=" stroke:none;fill-rule:nonzero;fill:rgb(0%,0%,0%);fill-opacity:1;" d="M 19.679688 5.082031 L 19.023438 4.421875 C 18.820312 4.214844 18.542969 4.101562 18.25 4.101562 C 17.957031 4.101562 17.683594 4.214844 17.476562 4.421875 L 10.003906 11.894531 L 2.523438 4.414062 C 2.316406 4.207031 2.042969 4.09375 1.75 4.09375 C 1.457031 4.09375 1.179688 4.207031 0.976562 4.414062 L 0.320312 5.070312 C -0.105469 5.496094 -0.105469 6.1875 0.320312 6.617188 L 9.226562 15.554688 C 9.433594 15.761719 9.707031 15.90625 10.003906 15.90625 L 10.007812 15.90625 C 10.300781 15.90625 10.574219 15.761719 10.78125 15.554688 L 19.679688 6.640625 C 19.886719 6.433594 20 6.152344 20 5.859375 C 20 5.566406 19.886719 5.285156 19.679688 5.082031 Z M 19.679688 5.082031 "/>
</g>
</svg>
