<svg width="1920" height="219" viewBox="0 0 1920 219" fill="none" xmlns="http://www.w3.org/2000/svg">
<rect width="1920" height="219" fill="#FCFCFC"/>
<path d="M825.866 132.656C831.085 132.656 835.452 134.398 838.967 137.883C842.483 141.367 844.241 145.656 844.241 150.75C844.241 155.797 842.483 160.078 838.967 163.594C835.467 167.109 831.194 168.867 826.147 168.867C821.038 168.867 816.725 167.117 813.21 163.617C809.694 160.117 807.936 155.883 807.936 150.914C807.936 147.602 808.733 144.531 810.327 141.703C811.936 138.875 814.124 136.664 816.889 135.07C819.655 133.461 822.647 132.656 825.866 132.656ZM826.03 136.031C823.483 136.031 821.069 136.695 818.788 138.023C816.507 139.352 814.725 141.141 813.444 143.391C812.163 145.641 811.522 148.148 811.522 150.914C811.522 155.008 812.936 158.469 815.764 161.297C818.608 164.109 822.03 165.516 826.03 165.516C828.702 165.516 831.171 164.867 833.436 163.57C835.717 162.273 837.491 160.5 838.757 158.25C840.038 156 840.678 153.5 840.678 150.75C840.678 148.016 840.038 145.547 838.757 143.344C837.491 141.125 835.702 139.352 833.389 138.023C831.077 136.695 828.624 136.031 826.03 136.031ZM854.392 133.523H857.837V154.336C857.837 156.805 857.884 158.344 857.978 158.953C858.15 160.312 858.548 161.453 859.173 162.375C859.798 163.281 860.759 164.047 862.056 164.672C863.353 165.281 864.658 165.586 865.97 165.586C867.111 165.586 868.205 165.344 869.252 164.859C870.298 164.375 871.173 163.703 871.877 162.844C872.58 161.984 873.095 160.945 873.423 159.727C873.658 158.852 873.775 157.055 873.775 154.336V133.523H877.22V154.336C877.22 157.414 876.916 159.906 876.306 161.812C875.712 163.703 874.509 165.352 872.697 166.758C870.9 168.164 868.72 168.867 866.158 168.867C863.377 168.867 860.994 168.203 859.009 166.875C857.025 165.547 855.697 163.789 855.025 161.602C854.603 160.258 854.392 157.836 854.392 154.336V133.523ZM889.036 133.523H895.903C899.731 133.523 902.325 133.68 903.684 133.992C905.731 134.461 907.395 135.469 908.676 137.016C909.957 138.547 910.598 140.438 910.598 142.688C910.598 144.562 910.153 146.211 909.262 147.633C908.387 149.055 907.129 150.133 905.489 150.867C903.848 151.586 901.582 151.953 898.692 151.969L911.09 168H906.825L894.45 151.969H892.481V168H889.036V133.523ZM892.481 136.898V148.617L898.411 148.664C900.707 148.664 902.403 148.445 903.497 148.008C904.606 147.57 905.465 146.875 906.075 145.922C906.7 144.953 907.012 143.875 907.012 142.688C907.012 141.531 906.7 140.484 906.075 139.547C905.45 138.594 904.629 137.914 903.614 137.508C902.598 137.102 900.911 136.898 898.551 136.898H892.481ZM969.666 139.922L966.948 142.008C965.448 140.055 963.643 138.578 961.533 137.578C959.44 136.562 957.135 136.055 954.619 136.055C951.869 136.055 949.323 136.719 946.979 138.047C944.635 139.359 942.815 141.133 941.518 143.367C940.237 145.586 939.596 148.086 939.596 150.867C939.596 155.07 941.033 158.578 943.908 161.391C946.799 164.203 950.44 165.609 954.83 165.609C959.658 165.609 963.698 163.719 966.948 159.938L969.666 162C967.948 164.188 965.799 165.883 963.221 167.086C960.658 168.273 957.791 168.867 954.619 168.867C948.588 168.867 943.83 166.859 940.346 162.844C937.424 159.453 935.963 155.359 935.963 150.562C935.963 145.516 937.729 141.273 941.26 137.836C944.807 134.383 949.244 132.656 954.573 132.656C957.791 132.656 960.698 133.297 963.291 134.578C965.885 135.844 968.01 137.625 969.666 139.922ZM979.724 133.523H983.193V164.672H996.435V168H979.724V133.523ZM1004.52 133.523H1007.97V168H1004.52V133.523ZM1019.03 133.523H1038.79V136.922H1022.48V147.703H1038.65V151.078H1022.48V164.602H1038.65V168H1019.03V133.523ZM1047.89 168V133.523H1048.64L1071.56 159.914V133.523H1074.96V168H1074.19L1051.45 141.938V168H1047.89ZM1083.09 136.875V133.523H1102.01V136.875H1094.32V168H1090.81V136.875H1083.09ZM1110.1 133.523H1129.85V136.922H1113.54V147.703H1129.71V151.078H1113.54V164.602H1129.71V168H1110.1V133.523ZM1138.93 133.523H1142.4V164.672H1155.64V168H1138.93V133.523ZM1164.24 133.523H1184V136.922H1167.69V147.703H1183.86V151.078H1167.69V164.602H1183.86V168H1164.24V133.523Z" fill="black"/>
</svg>
