

<svg xmlns="http://www.w3.org/2000/svg" xmlns:xlink="http://www.w3.org/1999/xlink" width="20pt" height="20pt" viewBox="0 0 20 20" version="1.1">
<g id="surface1">
<path style=" stroke:none;fill-rule:nonzero;fill:rgb(0%,0%,0%);fill-opacity:1;" d="M 19.769531 9.445312 L 15.6875 5.382812 C 15.382812 5.078125 14.886719 5.082031 14.582031 5.386719 C 14.277344 5.691406 14.28125 6.1875 14.585938 6.492188 L 17.328125 9.21875 L 0.78125 9.21875 C 0.351562 9.21875 0 9.570312 0 10 C 0 10.429688 0.351562 10.78125 0.78125 10.78125 L 17.328125 10.78125 L 14.585938 13.507812 C 14.28125 13.8125 14.277344 14.308594 14.582031 14.613281 C 14.886719 14.917969 15.382812 14.921875 15.6875 14.617188 L 19.769531 10.554688 C 20.078125 10.246094 20.074219 9.75 19.769531 9.445312 Z M 19.769531 9.445312 "/>
</g>
</svg>
